<?xml version="1.0" encoding="UTF-8"?>
<svg version="1.1" xmlns="http://www.w3.org/2000/svg" width="2410" height="735">
<path d="M0 0 C141.90914256 0 141.90914256 0 161.625 4.1875 C162.65512207 4.40180664 163.68524414 4.61611328 164.74658203 4.83691406 C191.68901972 10.69522667 217.02701312 21.9198389 238 40 C239.45019531 41.24910156 239.45019531 41.24910156 240.9296875 42.5234375 C269.47922012 67.63205778 284.2952032 101.96913448 290 139 C290.1045752 139.65742188 290.20915039 140.31484375 290.31689453 140.9921875 C291.42559059 149.17948147 291.24395815 157.50297947 291.25 165.75 C291.25067474 166.57602722 291.25134949 167.40205444 291.25204468 168.25311279 C291.23545918 181.04192512 290.75835204 193.46470382 288 206 C287.82307617 206.8048584 287.64615234 207.6097168 287.46386719 208.43896484 C280.80350145 237.63989478 267.79579271 262.44799664 247 284 C246.33484375 284.71671875 245.6696875 285.4334375 244.984375 286.171875 C216.13516973 316.47566205 173.32184939 328.33437733 133 332 C89.11 332 45.22 332 0 332 C0 222.44 0 112.88 0 0 Z M68 57 C68 128.94 68 200.88 68 275 C138.42296832 277.30995841 138.42296832 277.30995841 196.22265625 244.8125 C208.69947696 231.35003449 216.10408436 214.74806012 220 197 C220.21398438 196.06414062 220.42796875 195.12828125 220.6484375 194.1640625 C226.76729871 163.21503986 223.16819392 126.65803835 205.52636719 99.92822266 C201.79816284 94.50326695 197.6447543 89.65265355 193 85 C192.24203125 84.23042969 191.4840625 83.46085937 190.703125 82.66796875 C158.14152615 51.43650057 108.9960234 57 68 57 Z " fill="#0B880B" transform="translate(1984,273)"/>
<path d="M0 0 C0.66 0 1.32 0 2 0 C12.2406508 23.20005844 18.05988884 51.42372178 18.203125 76.8125 C18.20882507 77.62509277 18.21452515 78.43768555 18.22039795 79.27490234 C18.22977838 80.98582691 18.23635395 82.69676897 18.24023438 84.40771484 C18.24987252 86.96615979 18.28093487 89.52377624 18.3125 92.08203125 C18.52736592 125.43276685 7.13428612 155.83752338 -16 180 C-16.72316406 180.79792969 -17.44632813 181.59585938 -18.19140625 182.41796875 C-52.62419266 219.06470758 -113.74204267 235.76553974 -162.30859375 237.921875 C-163.64083984 237.96054687 -163.64083984 237.96054687 -165 238 C-164.59482288 230.43187015 -162.9615994 223.7736581 -160.5 216.625 C-160.14542725 215.58279297 -159.79085449 214.54058594 -159.42553711 213.46679688 C-144.3442232 170.1380996 -117.84547287 133.73674422 -76 113 C-112.66309141 123.07899356 -140.88046508 136.5291679 -160.73583984 170.72314453 C-178.99931282 203.6171478 -184.63997731 235.5359187 -184.54880548 272.87085426 C-184.54377194 276.76756252 -184.56205318 280.66417959 -184.57722473 284.56085205 C-184.60032745 291.28084139 -184.60929469 298.00072347 -184.60811615 304.72075081 C-184.60643355 314.43625031 -184.6269161 324.15160851 -184.65247145 333.86707001 C-184.69336609 349.63720319 -184.71681767 365.40731062 -184.72900391 381.17749023 C-184.74086596 396.47894763 -184.76112701 411.7803567 -184.79248047 427.08178711 C-184.79441657 428.02807061 -184.79635267 428.97435411 -184.79834744 429.94931287 C-184.80811334 434.69746603 -184.81804221 439.44561883 -184.82805204 444.19377148 C-184.91062646 483.46249418 -184.96367378 522.73120927 -185 562 C-196.22 562 -207.44 562 -219 562 C-219.00142502 557.61676453 -219.00285004 553.23352905 -219.00431824 548.71746826 C-219.01970145 508.50647497 -219.05981983 468.29556634 -219.12685562 428.08462481 C-219.13562219 422.81260174 -219.14417203 417.54057833 -219.15258789 412.26855469 C-219.15426695 411.21900601 -219.15594602 410.16945734 -219.15767596 409.08810416 C-219.18433332 392.10217443 -219.19344014 375.11627844 -219.19604143 358.13032994 C-219.19910272 340.69639353 -219.22106986 323.26255456 -219.26052457 305.82866216 C-219.28426909 295.0741849 -219.29333195 284.31990227 -219.28351311 273.56540242 C-219.27819037 266.18694372 -219.29126008 258.80865915 -219.3186629 251.43025002 C-219.33392533 247.17557738 -219.3412029 242.92129455 -219.32659721 238.66661072 C-219.31338332 234.76501211 -219.32346139 230.86416664 -219.35143773 226.96265236 C-219.35751552 225.55734449 -219.35531983 224.15196894 -219.34362926 222.74669656 C-219.27193821 213.39091999 -220.76655853 206.34707982 -225 198 C-225.48676387 197.0161151 -225.97352775 196.0322302 -226.47504205 195.01853061 C-236.48960673 175.22440686 -253.23966172 161.33406984 -274 154 C-277.65075929 153.1065472 -281.26850977 152.4416866 -285 152 C-283.44152344 152.72703125 -283.44152344 152.72703125 -281.8515625 153.46875 C-273.4054813 157.4914181 -265.93072733 161.60947862 -259 168 C-257.66388672 169.19882812 -257.66388672 169.19882812 -256.30078125 170.421875 C-243.54084841 182.45216036 -231.07130908 200.46547841 -228 218 C-265.33459109 218.76844472 -303.71619784 215.54048875 -332.296875 188.85546875 C-349.54291256 170.84071247 -354.18433085 146.06992255 -354 122 C-353.08155771 98.56071932 -353.08155771 98.56071932 -351 89 C-347.5404808 89.58674665 -345.88018271 90.77293029 -343.375 93.1875 C-327.02837757 107.91147977 -304.03204436 112.48736669 -283.51464844 118.46289062 C-229.91810368 134.12284448 -229.91810368 134.12284448 -216 155 C-215.53851563 154.06800781 -215.07703125 153.13601562 -214.6015625 152.17578125 C-200.4662575 124.28093385 -177.72473945 107.15998709 -151 92 C-150.10877441 91.49388184 -149.21754883 90.98776367 -148.29931641 90.46630859 C-125.97537425 77.89050106 -102.77025259 67.00357667 -79.5 56.3125 C-36.03696151 37.00889031 -36.03696151 37.00889031 -3 4 C-1.41796875 1.6875 -1.41796875 1.6875 0 0 Z " fill="#0C880B" transform="translate(557,43)"/>
<path d="M0 0 C63.69 0 127.38 0 193 0 C193 18.15 193 36.3 193 55 C151.75 55 110.5 55 68 55 C68 82.06 68 109.12 68 137 C104.63 137 141.26 137 179 137 C179 154.49 179 171.98 179 190 C142.37 190 105.74 190 68 190 C68 218.71 68 247.42 68 277 C109.25 277 150.5 277 193 277 C193 295.15 193 313.3 193 332 C129.31 332 65.62 332 0 332 C0 222.44 0 112.88 0 0 Z " fill="#0B880B" transform="translate(1732,273)"/>
<path d="M0 0 C63.69 0 127.38 0 193 0 C193 18.15 193 36.3 193 55 C151.75 55 110.5 55 68 55 C68 82.06 68 109.12 68 137 C104.63 137 141.26 137 179 137 C179 154.49 179 171.98 179 190 C142.37 190 105.74 190 68 190 C68 218.71 68 247.42 68 277 C109.25 277 150.5 277 193 277 C193 295.15 193 313.3 193 332 C129.31 332 65.62 332 0 332 C0 222.44 0 112.88 0 0 Z " fill="#0B880B" transform="translate(1480,273)"/>
<path d="M0 0 C67.98 0 135.96 0 206 0 C206 18.15 206 36.3 206 55 C160.46 55 114.92 55 68 55 C68 82.72 68 110.44 68 139 C102.65 139 137.3 139 173 139 C173 156.49 173 173.98 173 192 C138.35 192 103.7 192 68 192 C68 238.2 68 284.4 68 332 C45.56 332 23.12 332 0 332 C0 222.44 0 112.88 0 0 Z " fill="#0B880B" transform="translate(1229,273)"/>
<path d="M0 0 C1.15769394 0.00081573 1.15769394 0.00081573 2.33877563 0.00164795 C14.58558537 0.04127702 26.21578421 0.76641003 38 4.375 C38.70560059 4.58930664 39.41120117 4.80361328 40.13818359 5.02441406 C54.78790624 9.65276976 67.60024486 17.03987717 79 27.375 C79.49242187 27.81827637 79.98484375 28.26155273 80.4921875 28.71826172 C88.99312875 36.46674021 95.83328338 45.04156676 101 55.375 C101.33 38.215 101.66 21.055 102 3.375 C113.22 3.375 124.44 3.375 136 3.375 C136 89.175 136 174.975 136 263.375 C124.78 263.375 113.56 263.375 102 263.375 C101.67 246.215 101.34 229.055 101 211.375 C98.03 215.995 95.06 220.615 92 225.375 C70.35880758 250.83522637 43.2114376 264.33803784 10 267.375 C-15.63612451 269.17349149 -40.61783987 263.88579762 -63 251.375 C-64.44439453 250.57642578 -64.44439453 250.57642578 -65.91796875 249.76171875 C-93.93351023 233.08481592 -111.41648696 204.58505022 -119.46826172 173.56591797 C-129.09436143 133.90355856 -124.73315931 90.5861765 -104.07080078 55.12548828 C-88.89220463 30.31232494 -65.0144452 12.83625583 -37.3125 4.5625 C-36.66055664 4.36760986 -36.00861328 4.17271973 -35.33691406 3.97192383 C-23.64863312 0.69128189 -12.06974932 -0.03200882 0 0 Z M-61.625 56.5 C-82.48173504 77.98243709 -89.56526151 106.97001219 -89.35131836 136.09936523 C-88.76446512 162.78176202 -81.11622866 188.25798303 -63 208.375 C-62.09894531 209.39787109 -62.09894531 209.39787109 -61.1796875 210.44140625 C-44.95101444 227.79046888 -21.30608067 236.49835942 2.06640625 237.59765625 C26.5806306 238.32760129 50.54864106 230.9226473 69 214.375 C69.89460937 213.57449219 70.78921875 212.77398438 71.7109375 211.94921875 C90.06228099 194.60025957 101.0833944 169.67358104 102.12231445 144.39941406 C102.88405153 112.98178689 98.07864651 83.27097819 76 59.375 C75.31550781 58.59898437 74.63101563 57.82296875 73.92578125 57.0234375 C56.71814097 38.51170619 32.48660783 31.02384696 8 29.375 C-18.58018333 29.375 -42.2773884 38.22279568 -61.625 56.5 Z " fill="#0B890B" transform="translate(555,341.625)"/>
<path d="M0 0 C157.62908497 0 157.62908497 0 188.125 28.625 C203.64936151 44.71612391 212.16562334 66.76204823 213 89 C213.03996094 89.96550781 213.07992187 90.93101562 213.12109375 91.92578125 C213.68063927 118.88270972 205.38132656 143.75036833 186.875 163.625 C172.40982289 177.51852922 152.88963285 185.16479272 133.4375 188.6875 C132.4479834 188.86671997 132.4479834 188.86671997 131.43847656 189.04956055 C119.18607499 191.11002896 106.92842418 191.13719712 94.546875 191.09765625 C92.9903975 191.09618212 91.4339195 191.09516432 89.87744141 191.09460449 C84.16828661 191.08940618 78.45914249 191.07544512 72.75 191.0625 C59.9625 191.041875 47.175 191.02125 34 191 C34 237.53 34 284.06 34 332 C22.78 332 11.56 332 0 332 C0 222.44 0 112.88 0 0 Z M34 29 C34 72.56 34 116.12 34 161 C54.0475 161.0928125 54.0475 161.0928125 74.5 161.1875 C78.68751953 161.21481201 82.87503906 161.24212402 87.18945312 161.27026367 C91.0118982 161.28030978 91.0118982 161.28030978 94.83435059 161.28633118 C96.50950527 161.29087528 98.18465146 161.30129259 99.85974121 161.31672668 C121.9142302 161.50940495 144.33898704 158.19006118 161.34765625 142.7421875 C174.38219776 128.99891206 178.05538543 111.33257726 178 93 C177.48440751 78.34803609 174.27598693 63.68440514 165 52 C164.32517578 51.08347656 164.32517578 51.08347656 163.63671875 50.1484375 C152.54333068 35.96140037 134.46601721 31.52263298 117.45478058 29.26446152 C110.16922584 28.47956495 102.84014305 28.63742881 95.5234375 28.70703125 C93.93335285 28.71146088 92.34326376 28.71450979 90.75317383 28.71618652 C84.96038102 28.73169769 79.16768282 28.77357901 73.375 28.8125 C60.38125 28.874375 47.3875 28.93625 34 29 Z " fill="#0B880B" transform="translate(71,273)"/>
<path d="M0 0 C1.03941238 0.00456207 1.03941238 0.00456207 2.099823 0.00921631 C31.1334274 0.19671537 56.52623939 8.90017664 77.3125 29.4375 C78.29476562 30.31148438 78.29476562 30.31148438 79.296875 31.203125 C99.08631617 49.1770211 104.85740624 78.95680358 106.22200084 104.38150716 C106.48979756 110.4654104 106.44179174 116.55604137 106.42602539 122.64428711 C106.42574244 124.20313007 106.42590335 125.76197316 106.4264679 127.32081604 C106.42675166 131.50162465 106.42092374 135.68240383 106.41389394 139.86320567 C106.4075896 144.25137729 106.40705105 148.63954977 106.40586853 153.02772522 C106.40277591 161.31456844 106.39459074 169.60139827 106.38451904 177.88823563 C106.37329322 187.33217462 106.36783124 196.7761143 106.36282361 206.22005832 C106.35240612 225.62588132 106.33408674 245.03168599 106.3125 264.4375 C95.0925 264.4375 83.8725 264.4375 72.3125 264.4375 C72.29062622 257.36187622 72.29062622 257.36187622 72.26831055 250.14331055 C72.21782616 234.50509351 72.15135395 218.86697402 72.07678509 203.22885418 C72.03198889 193.75357367 71.99253782 184.2783294 71.96606445 174.80297852 C71.94295242 166.53572321 71.9094096 158.26858414 71.86379844 150.00142127 C71.84004258 145.63177147 71.8211992 141.26223551 71.81488609 136.89252281 C71.76339459 105.46345319 71.58817345 73.63243386 48.3125 49.4375 C29.63871118 33.00911349 7.4234029 30.15642093 -16.46240234 31.21875 C-35.48226856 32.50881814 -52.60709377 41.03765863 -65.85546875 54.66796875 C-84.35294798 76.02772717 -86.77817013 104.47323462 -86.89282227 131.49926758 C-86.90242931 132.95929727 -86.91244091 134.41932435 -86.92282104 135.87934875 C-86.94957057 139.79992455 -86.97073987 143.72051202 -86.99082303 147.64112687 C-87.01287012 151.75439911 -87.04016614 155.86763663 -87.06687927 159.98088074 C-87.1165555 167.75069192 -87.16158603 175.52052263 -87.20490164 183.2903716 C-87.25448996 192.14421559 -87.30932716 200.99802472 -87.36458123 209.85183489 C-87.4780158 228.04702551 -87.58424428 246.24224858 -87.6875 264.4375 C-98.9075 264.4375 -110.1275 264.4375 -121.6875 264.4375 C-121.6875 178.6375 -121.6875 92.8375 -121.6875 4.4375 C-110.4675 4.4375 -99.2475 4.4375 -87.6875 4.4375 C-87.1925 24.7325 -87.1925 24.7325 -86.6875 45.4375 C-83.2225 39.9925 -83.2225 39.9925 -79.6875 34.4375 C-59.99345665 10.22351227 -30.63709768 -0.28762018 0 0 Z " fill="#0B880B" transform="translate(887.6875,340.5625)"/>
<path d="M0 0 C89.38881724 -0.06650343 178.77763813 -0.12960181 276.3926239 -0.16937256 C277.76949998 -0.16993036 279.14637605 -0.17048817 280.52325212 -0.17104598 C309.4243389 -0.18273676 338.32542594 -0.19360362 367.22651338 -0.20351871 C381.74451931 -0.20850029 396.26252518 -0.21364018 410.780531 -0.21892977 C412.97051532 -0.21972676 415.16049964 -0.22051923 417.35048397 -0.22131152 C451.07254782 -0.23355123 484.7946059 -0.24918604 518.5166626 -0.2746582 C519.60421692 -0.2754796 519.60421692 -0.2754796 520.71374203 -0.27631758 C532.40344794 -0.28516705 544.09315363 -0.29430149 555.7828593 -0.30347376 C589.45345205 -0.32988887 623.12404037 -0.35419622 656.79464245 -0.36455917 C657.83329478 -0.36488038 657.83329478 -0.36488038 658.89292999 -0.36520808 C674.09369599 -0.36987118 689.29446205 -0.37345058 704.49522855 -0.37600393 C710.61154162 -0.37705042 716.72785467 -0.3782529 722.84416771 -0.37950897 C723.51357076 -0.37964268 724.1829738 -0.37977639 724.87266179 -0.37991415 C746.43953271 -0.38429958 768.00637064 -0.40138268 789.57322824 -0.42512883 C811.90344074 -0.44965572 834.23361697 -0.46005793 856.56384275 -0.45400551 C869.44126427 -0.45095834 882.31856624 -0.45911743 895.19596622 -0.48319017 C903.79372679 -0.49816754 912.3914089 -0.49867028 920.98917485 -0.48732725 C925.89087155 -0.48127708 930.79234186 -0.48159259 935.69401447 -0.49953273 C940.15465309 -0.51573482 944.61488893 -0.51346495 949.07552147 -0.4965599 C950.67787694 -0.49370663 952.28026212 -0.49753849 953.88257956 -0.50894098 C967.76216037 -0.60143664 977.41135388 2.40566992 988.85546875 10.171875 C989.75249512 10.7672406 990.64952148 11.3626062 991.57373047 11.97601318 C994.45221334 13.89008607 997.31979042 15.81983333 1000.1875 17.75 C1002.16830683 19.07074173 1004.14983687 20.39039942 1006.13208008 21.70898438 C1011.76372331 25.45929491 1017.38290576 29.2279486 1023 33 C1026.73656167 35.50513877 1030.47451582 38.00818125 1034.21411133 40.50878906 C1036.11551869 41.78211844 1038.01408467 43.05970764 1039.90893555 44.34277344 C1049.61705265 50.87593855 1058.06424432 56.23916241 1070.15513515 56.26171303 C1071.18787241 56.26770712 1071.18787241 56.26770712 1072.24147305 56.27382231 C1074.54146247 56.28476452 1076.84121002 56.28159987 1079.14122009 56.2784729 C1080.80955878 56.28347758 1082.47789504 56.28935388 1084.1462279 56.29602563 C1088.72525914 56.31181878 1093.30422902 56.31525594 1097.88328421 56.31667423 C1102.82323872 56.32036946 1107.76315962 56.33552557 1112.70309448 56.34928894 C1121.26008184 56.3715617 1129.81705724 56.3865749 1138.37406731 56.39665604 C1150.74606058 56.41124216 1163.11801218 56.43677882 1175.489981 56.46498732 C1195.56272696 56.51045651 1215.63547891 56.54707081 1235.70825195 56.578125 C1255.20696058 56.60831001 1274.70565454 56.64266007 1294.2043457 56.68261719 C1295.40626586 56.68507874 1296.60818601 56.68754028 1297.84652799 56.69007643 C1303.8762144 56.70245102 1309.90590065 56.71490755 1315.93558681 56.72740483 C1365.95703739 56.83097453 1415.97850628 56.92017717 1466 57 C1466.12932922 56.38810822 1466.25865845 55.77621643 1466.39190674 55.14578247 C1466.65279083 53.93690872 1466.65279083 53.93690872 1466.91894531 52.70361328 C1467.08952454 51.9060965 1467.26010376 51.10857971 1467.43585205 50.28689575 C1470.32509207 38.57473633 1478.03648627 29.37242398 1488 23 C1502.09296267 15.10270513 1515.35274218 13.09971859 1531.02929688 17.09570312 C1543.55745185 20.6396183 1553.95848541 29.21197925 1560.375 40.5 C1566.74118213 53.24999911 1569.13501216 67.05098902 1565 81 C1559.9276021 93.90372044 1552.25346442 104.18775929 1540 111 C1538.95585937 111.58394531 1538.95585937 111.58394531 1537.890625 112.1796875 C1526.94175065 117.65412467 1513.83764941 118.28948501 1502.08984375 115.24609375 C1491.33158292 111.62974447 1479.51910734 105.17468831 1473.83719752 94.89658728 C1472.05728708 92.67738647 1472.05728708 92.67738647 1468.78168589 92.50252802 C1467.41948863 92.48317877 1466.05687176 92.48619405 1464.69468349 92.50616604 C1463.56269838 92.49898013 1463.56269838 92.49898013 1462.40784488 92.49164904 C1459.85327988 92.48039175 1457.29969858 92.49790223 1454.74517727 92.51504612 C1452.89772573 92.51288709 1451.05027555 92.50897289 1449.202831 92.50345281 C1444.08711763 92.4933297 1438.97173103 92.50838325 1433.85605371 92.52727035 C1428.30529868 92.54340381 1422.75456672 92.53645293 1417.20379645 92.53236192 C1407.46228683 92.52841776 1397.72088201 92.53947164 1387.97939491 92.56017876 C1374.17038364 92.58948678 1360.36141084 92.59858189 1346.55237364 92.6017494 C1321.50864686 92.60749917 1296.46497566 92.6328717 1271.421278 92.67057991 C1247.27806843 92.70691408 1223.13486935 92.73629476 1198.99164009 92.75585747 C1197.47673494 92.75709494 1195.96182979 92.75833326 1194.44692465 92.75957241 C1188.35940709 92.76454125 1182.27188949 92.76946444 1176.18437184 92.77432791 C1159.16547559 92.78794671 1142.14658067 92.80292593 1125.1276865 92.81893826 C1124.35259544 92.81966709 1123.57750437 92.82039593 1122.7789257 92.82114685 C1098.07085325 92.84447531 1073.36279154 92.87374473 1048.6547308 92.90718937 C1047.45219197 92.90881632 1047.45219197 92.90881632 1046.22535942 92.91047614 C1033.20563823 92.92811235 1020.18591751 92.94608442 1007.16619681 92.9640784 C955.54317835 93.03540259 903.92017331 93.08935845 852.29711914 93.12670898 C849.03603428 93.12907295 845.77494943 93.13143881 842.51386457 93.13380498 C841.70757545 93.13438992 840.90128633 93.13497487 840.0705642 93.13557753 C831.14133412 93.14205933 822.21210409 93.14859808 813.28287411 93.15520573 C812.48214856 93.15579711 811.68142301 93.1563885 810.85643306 93.15699781 C768.39430622 93.1884213 725.93219441 93.23327374 683.47008572 93.28332297 C677.38573465 93.29049398 671.30138354 93.2976294 665.21703243 93.30476385 C662.94775388 93.30742902 660.67847535 93.31010743 658.40919681 93.31278637 C641.8075838 93.33233002 625.20597187 93.34987471 608.60435176 93.36216283 C607.85606156 93.36271703 607.10777136 93.36327123 606.33680571 93.36384222 C602.56914506 93.36662022 598.80148438 93.36936265 595.03382369 93.37209068 C567.80738877 93.39181389 540.58099366 93.42111937 513.35459029 93.46761287 C498.9483967 93.49199182 484.54224061 93.50800464 470.13602575 93.51231647 C460.52057993 93.51602609 450.90519036 93.53056509 441.28977254 93.55402744 C435.8061091 93.56710713 430.32255034 93.57543159 424.83887088 93.57068051 C419.85137414 93.56646084 414.86410016 93.575966 409.87664553 93.59647537 C408.0824468 93.60144408 406.28822547 93.60139742 404.49402876 93.59574803 C383.81062296 93.53684146 373.37152924 99.69385023 358.5480957 113.79418945 C354.97430954 117.18921825 351.36005124 120.42689373 347.5 123.5 C342.89854575 127.17290967 338.59760858 131.09369116 334.3125 135.125 C333.66458496 135.73408203 333.01666992 136.34316406 332.34912109 136.97070312 C331.11070418 138.13559798 329.8724166 139.30063035 328.63427734 140.46582031 C314.59847117 153.64194908 303.40796026 158.46979997 284.20066833 158.36076355 C282.48523203 158.36207283 280.76979632 158.36470149 279.05436379 158.36853105 C274.35436902 158.37522397 269.6545802 158.36325976 264.95461166 158.34819686 C259.881103 158.33522356 254.80760566 158.33962688 249.73408508 158.34190369 C240.94846795 158.3434756 232.16291773 158.33407493 223.37731743 158.31719017 C210.6748744 158.29279367 197.97246367 158.28499423 185.26999975 158.2812262 C164.66036887 158.27466274 144.05077364 158.25470442 123.44116211 158.22631836 C103.42260923 158.19877507 83.40406605 158.1775428 63.38549805 158.16479492 C61.53412056 158.16361267 61.53412056 158.16361267 59.64534151 158.16240653 C53.45337178 158.15849137 47.26140198 158.15470026 41.06943214 158.15097082 C-10.28706988 158.1198782 -61.6435332 158.06704525 -113 158 C-113 156.35 -113 154.7 -113 153 C-112.13163798 152.99902319 -111.26327597 152.99804638 -110.36859995 152.99703997 C-58.91253269 152.93877918 -7.45650768 152.8649909 43.99950739 152.77101372 C50.17667335 152.75974544 56.35383953 152.748607 62.53100586 152.73754883 C63.76077835 152.73534514 64.99055084 152.73314146 66.25758917 152.730871 C86.17487051 152.69549007 106.09215181 152.67063042 126.00945293 152.64965298 C146.4435358 152.62789728 166.87757786 152.59484903 187.31162602 152.55129844 C199.92244994 152.5247778 212.533223 152.50708545 225.14407343 152.50065396 C233.78956226 152.49540136 242.43498706 152.47918863 251.08044159 152.45433434 C256.06981929 152.44031506 261.05908236 152.43115017 266.04848099 152.43499184 C270.6177444 152.43840334 275.18676304 152.42802974 279.75597633 152.40676448 C281.40753032 152.40149846 283.05910975 152.40125973 284.71066349 152.40660437 C299.42028178 152.55011919 299.42028178 152.55011919 312.3125 146 C313.04984375 145.3915625 313.7871875 144.783125 314.546875 144.15625 C318.47057085 140.70739633 322.32582182 137.18858707 326.15234375 133.6328125 C329.06200401 130.94267393 332.02436877 128.32812395 335.01953125 125.734375 C337.31133155 123.72735462 339.55996752 121.67597149 341.8125 119.625 C346.13612893 115.71723156 350.60938574 112.04295463 355.15234375 108.39453125 C357.16390498 106.70305384 359.05800753 105.0204796 360.94140625 103.19921875 C370.92350085 93.55143707 380.4426488 87.82528762 394.56522018 87.8758015 C395.70290301 87.87388437 395.70290301 87.87388437 396.86356933 87.87192852 C399.41868446 87.86885285 401.97373839 87.87293582 404.52885151 87.87695217 C406.38165771 87.8762128 408.23446378 87.87503449 410.08726946 87.87345567 C415.2083508 87.87037616 420.32941241 87.87357046 425.45049229 87.87773381 C431.01051641 87.88115884 436.57053845 87.87879896 442.13056296 87.87715632 C451.88491042 87.87507906 461.6392518 87.87673235 471.39359856 87.88079453 C485.89806173 87.88681814 500.40252201 87.88713307 514.90698603 87.88625254 C539.30327006 87.8848443 563.6995515 87.88827842 588.09583473 87.89426994 C612.25972316 87.90019022 636.42361047 87.9040446 660.58749962 87.90512276 C661.33763742 87.90515717 662.08777523 87.90519158 662.86064448 87.90522704 C669.71188906 87.90554023 676.56313364 87.90582792 683.41437823 87.90608501 C700.44662768 87.90672445 717.4788771 87.9076838 734.51112652 87.90886021 C735.28678058 87.90891352 736.06243464 87.90896684 736.86159338 87.90902177 C774.60263494 87.91164398 812.34367576 87.91795182 850.0847168 87.92456055 C863.18347167 87.92685218 876.28222655 87.92912754 889.38098145 87.93133545 C890.19335557 87.9314724 891.0057297 87.93160935 891.84272122 87.93175045 C929.60034074 87.93809326 967.35796038 87.94181971 1005.11558029 87.94487024 C1007.56650876 87.94506831 1010.01743724 87.9452675 1012.46836571 87.94546692 C1028.71064972 87.94678669 1044.95293374 87.94806134 1061.19521776 87.94930578 C1093.51397342 87.95178235 1125.83272905 87.95452404 1158.15148466 87.95744783 C1159.69062556 87.95758707 1161.22976646 87.95772612 1162.76890736 87.95786499 C1242.28825539 87.96504137 1321.80760271 87.97643142 1470 88 C1469.71995117 87.24219238 1469.43990234 86.48438477 1469.15136719 85.70361328 C1468.60464355 84.21450439 1468.60464355 84.21450439 1468.046875 82.6953125 C1467.68432617 81.71062988 1467.32177734 80.72594727 1466.94824219 79.71142578 C1465.35950291 75.16854771 1464.96712778 71.08916888 1464.984375 66.3203125 C1464.98775879 65.10625732 1464.98775879 65.10625732 1464.99121094 63.86767578 C1464.99411133 63.25134277 1464.99701172 62.63500977 1465 62 C1464.14894546 62.00113916 1463.29789092 62.00227832 1462.42104685 62.003452 C1411.9837136 62.07058224 1361.54638508 62.12205767 1311.1090161 62.15319599 C1305.05330883 62.15694812 1298.99760166 62.16083109 1292.94189453 62.16479492 C1291.13351664 62.16597532 1291.13351664 62.16597532 1289.28860585 62.16717956 C1269.76643754 62.18023445 1250.24429572 62.20388876 1230.72214313 62.23145839 C1210.69149668 62.25951025 1190.66086412 62.2761758 1170.63019884 62.28226548 C1158.26963543 62.28638237 1145.90914691 62.29938661 1133.54860656 62.3237494 C1125.07320209 62.33960386 1116.59783635 62.344401 1108.12241812 62.34050413 C1103.23213443 62.33858215 1098.34198163 62.34153429 1093.45172119 62.35761642 C1088.97187136 62.37224117 1084.49224017 62.37293563 1080.01238017 62.36269668 C1078.39444273 62.36143166 1076.77649152 62.36521534 1075.15858109 62.37464955 C1063.32401672 62.43962778 1053.70048572 61.34568337 1043.71484375 54.71484375 C1042.71468483 54.07058693 1042.71468483 54.07058693 1041.69432068 53.41331482 C1039.45145221 51.95885266 1037.22433631 50.48263836 1035 49 C1034.18476868 48.45788879 1033.36953735 47.91577759 1032.52960205 47.35723877 C1026.18396086 43.12655996 1019.87107024 38.84818051 1013.5625 34.5625 C1007.22795642 30.26308875 1000.88803516 25.97206286 994.53204346 21.70440674 C992.87364858 20.58808332 991.21805364 19.46758638 989.56561279 18.34246826 C987.31079482 16.80855416 985.04567266 15.29118025 982.77734375 13.77734375 C982.13334122 13.333871 981.48933868 12.89039825 980.82582092 12.43348694 C970.76805268 5.79654146 960.41021934 5.56499889 948.69875908 5.61523914 C947.0413626 5.61130801 945.38396881 5.60606443 943.72658014 5.59963337 C939.17133004 5.58575638 934.61626078 5.59049402 930.06100318 5.59826221 C925.10569698 5.60340845 920.15042877 5.59116866 915.19513428 5.58113068 C906.51030114 5.56593362 897.82551774 5.5618414 889.14067268 5.56500816 C876.22663247 5.56966677 863.31264864 5.55718526 850.39861954 5.54117843 C828.67529164 5.51473868 806.9519765 5.50221923 785.22863388 5.49761391 C763.71761112 5.4930327 742.20660597 5.48225627 720.69559097 5.46318626 C720.02737644 5.46259669 719.35916191 5.46200712 718.67069845 5.46139968 C712.56752789 5.45601152 706.46435739 5.45054708 700.36118698 5.44499113 C685.18984356 5.43118102 670.01849941 5.4183274 654.84715462 5.40612316 C654.15630882 5.40556666 653.46546302 5.40501016 652.7536825 5.40443679 C619.15350038 5.37745408 585.55331423 5.36149203 551.953125 5.34643555 C540.29408768 5.34120492 528.63505039 5.33592554 516.97601318 5.33044434 C516.25291194 5.33010444 515.52981069 5.32976454 514.78479728 5.32941434 C481.16536397 5.31354444 447.54593751 5.2898422 413.92651047 5.26412141 C411.74372965 5.2624516 409.56094884 5.26078517 407.37816802 5.25911942 C392.9126832 5.24807497 378.44719848 5.23689557 363.98171384 5.2256258 C335.19934916 5.20320323 306.4169839 5.18157357 277.63461821 5.16048871 C276.2639479 5.15948461 274.89327759 5.15847994 273.52260728 5.15747473 C185.08274991 5.09262161 96.64288146 5.04655266 0 5 C0 3.35 0 1.7 0 0 Z M1482.62109375 31.24609375 C1473.4959332 41.11885781 1468.23205154 52.66081477 1467.9296875 66.1328125 C1468.40615661 77.76426428 1472.19029057 88.30544664 1480 97 C1480.52335937 97.60328125 1481.04671875 98.2065625 1481.5859375 98.828125 C1489.47566783 107.34755212 1499.61348983 112.60086271 1511.2109375 113.31640625 C1526.4019171 113.88542321 1537.26313092 110.20761927 1548.96484375 100.34375 C1557.4135109 92.50516166 1562.60738253 82.28083767 1563.31640625 70.7890625 C1563.90855913 54.93383261 1559.72313092 43.17243346 1549 31.375 C1540.02156196 22.74421191 1528.46100924 18.34473313 1516.10546875 17.89453125 C1503.62028259 18.31855644 1491.8535558 22.76639839 1482.62109375 31.24609375 Z " fill="#0B880B" transform="translate(642,129)"/>
<path d="M0 0 C11.55 0 23.1 0 35 0 C35 21.45 35 42.9 35 65 C58.43 65 81.86 65 106 65 C106 74.57 106 84.14 106 94 C82.57 94 59.14 94 35 94 C35.03029297 99.5368457 35.06058594 105.07369141 35.09179688 110.77832031 C35.19247571 129.20633599 35.29208016 147.63435736 35.39115143 166.06238174 C35.4511607 177.21981341 35.51152025 188.37724295 35.57275391 199.53466797 C35.62622753 209.27830331 35.67899357 219.0219422 35.73096704 228.76558566 C35.75841834 233.90762281 35.78618496 239.04965775 35.81480408 244.19168854 C35.953334 269.1280652 36.03338654 294.06322296 36 319 C27.31201047 317.43401 18.57826802 311.72556023 13.2578125 304.69921875 C-0.34190486 284.53311426 -0.17319129 261.66615792 -0.11352539 238.29077148 C-0.11324231 236.70207725 -0.11340361 235.11338288 -0.1139679 233.52468872 C-0.11425115 229.27168697 -0.1084318 225.01871426 -0.10139394 220.76571918 C-0.0950808 216.29881617 -0.09455037 211.83191227 -0.09336853 207.36500549 C-0.09027844 198.93302351 -0.0820968 190.50105472 -0.07201904 182.06907851 C-0.06078522 172.45822808 -0.05532925 162.84737697 -0.05032361 153.2365216 C-0.03991187 133.49100544 -0.02159577 113.74550732 0 94 C-11.88 94 -23.76 94 -36 94 C-36 84.43 -36 74.86 -36 65 C-24.12 65 -12.24 65 0 65 C0 43.55 0 22.1 0 0 Z " fill="#0B880B" transform="translate(1075,280)"/>
<path d="M0 0 C14.26298044 10.85638198 24.43560747 26.04925227 27 44 C28.53360187 62.62230841 25.57822697 80.32632223 13.453125 95.23046875 C5.20684504 104.84300501 -4.20025934 111.41121196 -16 116 C-16.78117187 116.32097656 -17.56234375 116.64195312 -18.3671875 116.97265625 C-34.21992456 122.41728639 -53.11171545 119.7482768 -68 113 C-75.47104139 109.09919078 -81.14337842 104.00012226 -87 98 C-87.60457031 97.41605469 -88.20914063 96.83210938 -88.83203125 96.23046875 C-100.18600868 84.39716774 -103.98387907 66.81462955 -104 51 C-102.90641625 32.6079097 -95.24938151 17.24692826 -82.01953125 4.578125 C-58.80776759 -15.24045717 -25.30663952 -16.82953859 0 0 Z " fill="#4A9933" transform="translate(2322,105)"/>
<path d="M0 0 C3.4595192 0.58674665 5.11981729 1.77293029 7.625 4.1875 C23.97162243 18.91147977 46.96795564 23.48736669 67.48535156 29.46289062 C96.30781236 37.88429928 125.69492489 47.41572386 141.08203125 75.24023438 C148.24558393 88.97291728 149.38583304 102.89038543 149.3125 118.125 C149.31167419 118.85100403 149.31084839 119.57700806 149.30999756 120.32501221 C149.28080248 131.48521395 148.44009355 142.09694785 146 153 C145.59542929 155.20674935 145.19843197 157.41491479 144.8125 159.625 C144.54311851 161.08360221 144.27296167 162.54206354 144 164 C143.01 164 142.02 164 141 164 C139.91743449 160.75230348 139.82400925 158.16663154 139.6875 154.75 C139.25858807 148.04652166 137.84050891 142.01714188 135.98828125 135.578125 C134.65990692 130.76867484 133.77808078 125.92443232 133 121 C132.34 121 131.68 121 131 121 C130.70867187 120.26136719 130.41734375 119.52273437 130.1171875 118.76171875 C120.87290963 95.88358453 106.83424749 78.03271038 84 67.6875 C78.07773411 65.23623101 72.35726461 63.75249255 66 63 C67.55847656 63.72703125 67.55847656 63.72703125 69.1484375 64.46875 C77.5945187 68.4914181 85.06927267 72.60947862 92 79 C92.89074219 79.79921875 93.78148437 80.5984375 94.69921875 81.421875 C107.45915159 93.45216036 119.92869092 111.46547841 123 129 C85.66540891 129.76844472 47.28380216 126.54048875 18.703125 99.85546875 C1.45708744 81.84071247 -3.18433085 57.06992255 -3 33 C-2.08155771 9.56071932 -2.08155771 9.56071932 0 0 Z " fill="#317B1E" transform="translate(206,132)"/>
<path d="M0 0 C1.65 0 3.3 0 5 0 C5.07012562 25.7736502 5.12300563 51.54728606 5.15543652 77.3210125 C5.17089593 89.28858507 5.19196784 101.25609832 5.22631836 113.22363281 C5.25624895 123.65627461 5.27558173 134.08887343 5.28226548 144.52155697 C5.28617152 150.0439957 5.29533212 155.56631151 5.31719017 161.08871078 C5.33761306 166.29086478 5.34382205 171.49284566 5.33932304 176.69503593 C5.34014565 178.60011296 5.34607658 180.50519601 5.35761642 182.41023827 C5.46397204 200.88002815 5.46397204 200.88002815 2 209 C1.62101562 209.90492188 1.24203125 210.80984375 0.8515625 211.7421875 C-3.67441865 219.61220568 -10.20931523 225.13392011 -17 231 C-17.73734375 231.64839844 -18.4746875 232.29679688 -19.234375 232.96484375 C-20.47776438 234.05666293 -21.72506659 235.14404494 -22.9765625 236.2265625 C-25.51501171 238.45138092 -28.00641776 240.72503319 -30.5 243 C-34.26350521 246.43264761 -38.06129351 249.8155501 -41.90625 253.15625 C-45.4281247 256.25760235 -48.88077022 259.43513333 -52.34765625 262.59765625 C-54.52460996 264.56941844 -56.71838674 266.51365337 -58.9375 268.4375 C-62.3468858 271.3988351 -65.6779431 274.44152486 -69 277.5 C-72.95862186 281.14414329 -76.9517676 284.73913717 -81.015625 288.265625 C-83.32149035 290.28098763 -85.59939131 292.32553876 -87.875 294.375 C-88.71933594 295.13425781 -89.56367188 295.89351562 -90.43359375 296.67578125 C-92.12220825 298.205044 -93.80219379 299.7438985 -95.47265625 301.29296875 C-106.5224977 311.46722847 -116.95481751 320.12282235 -132.59163254 320.12600785 C-133.71407192 320.12866366 -134.8365113 320.13131947 -135.992964 320.13405576 C-137.22354686 320.13188971 -138.45412973 320.12972365 -139.72200298 320.12749195 C-141.03664259 320.12913578 -142.3512822 320.13077962 -143.70575938 320.13247326 C-147.36954145 320.13692429 -151.03329852 320.13514383 -154.6970813 320.13239995 C-158.67751671 320.13052794 -162.65794689 320.13447211 -166.63838083 320.13771313 C-173.61963562 320.14261162 -180.60088365 320.1438582 -187.58213997 320.14274788 C-197.96360059 320.14113955 -208.34505317 320.1452966 -218.72651216 320.15082836 C-235.11923851 320.1594852 -251.51196381 320.16484316 -267.90469207 320.16802987 C-293.92633606 320.17316909 -319.94796633 320.18863 -345.96960355 320.20760635 C-351.50545456 320.21162797 -357.04130564 320.21554883 -362.57715672 320.21947271 C-363.68073903 320.22025536 -364.78432134 320.22103802 -365.92134554 320.22184439 C-368.15768612 320.22342997 -370.3940267 320.2250148 -372.63036729 320.22659888 C-374.87499792 320.22819016 -377.11962855 320.2297844 -379.36425917 320.23138161 C-405.84220368 320.25021687 -432.32014912 320.2673009 -458.7980957 320.28295898 C-460.53625183 320.28399236 -460.53625183 320.28399236 -462.30952222 320.28504662 C-499.89211459 320.30731287 -537.47470298 320.31914806 -575.05730089 320.32662554 C-613.68496845 320.33438701 -652.31260885 320.35543237 -690.94026015 320.39216815 C-696.39367359 320.39734197 -701.84708717 320.40234929 -707.30050087 320.40724754 C-708.91045266 320.40869798 -708.91045266 320.40869798 -710.55292872 320.41017772 C-727.83907384 320.42533095 -745.1251918 320.4262102 -762.41134174 320.42159041 C-779.77974522 320.41721037 -797.1480929 320.42709548 -814.51647999 320.45167748 C-824.83908241 320.46583553 -835.16154821 320.46879105 -845.48415295 320.45583495 C-852.37751107 320.44827248 -859.2707566 320.45515549 -866.16409337 320.47381646 C-870.09304291 320.48403495 -874.02171807 320.48792687 -877.95066311 320.47419123 C-881.52746023 320.46180815 -885.10373869 320.46791197 -888.6804934 320.48854202 C-890.567785 320.49471948 -892.45511 320.48136613 -894.34235808 320.46713749 C-903.84547593 320.55226156 -911.78711953 322.50689763 -919.125 328.8125 C-920.48625 329.97652344 -920.48625 329.97652344 -921.875 331.1640625 C-924.26721252 333.30669379 -926.60544933 335.50309875 -928.9375 337.7109375 C-929.62956543 338.36602295 -930.32163086 339.0211084 -931.03466797 339.69604492 C-932.39037602 340.98762522 -933.73885339 342.28685472 -935.07861328 343.5949707 C-945.84546334 353.94351869 -955.91528162 358.48459513 -970.92937374 358.38031673 C-972.51952327 358.38730661 -972.51952327 358.38730661 -974.14179704 358.3944377 C-977.68799641 358.40637228 -981.23381158 358.39699789 -984.78001404 358.38768005 C-987.35055797 358.39185362 -989.92110005 358.39733126 -992.49163872 358.40399987 C-998.07741602 358.41635297 -1003.66310931 358.41758509 -1009.24889565 358.41144943 C-1017.55526881 358.4023498 -1025.86156442 358.41039725 -1034.16793165 358.42174067 C-1049.00433705 358.4414019 -1063.84070752 358.44375607 -1078.67712285 358.43854547 C-1091.6613663 358.43398763 -1104.64559593 358.43458831 -1117.62983894 358.44038582 C-1119.37177753 358.44114269 -1121.11371612 358.44189867 -1122.85565471 358.44265376 C-1125.48061889 358.44379896 -1128.10558308 358.44494884 -1130.73054726 358.44611301 C-1155.13327249 358.45681721 -1179.53599311 358.46154403 -1203.93871975 358.45364285 C-1204.85850413 358.45334567 -1205.77828851 358.4530485 -1206.72594514 358.45274232 C-1214.19516805 358.4502934 -1221.66439091 358.44768181 -1229.13361375 358.44505819 C-1258.27081973 358.43495494 -1287.40796808 358.44331296 -1316.54516602 358.46655273 C-1349.2848516 358.49262363 -1382.02450249 358.50547381 -1414.76419884 358.49836498 C-1418.25491432 358.49764893 -1421.7456298 358.49697454 -1425.23634529 358.49632454 C-1426.09584138 358.49615473 -1426.95533748 358.49598492 -1427.84087891 358.49580997 C-1440.81578643 358.49350689 -1453.79066175 358.50148434 -1466.76556206 358.51461601 C-1481.52053267 358.52952268 -1496.27542777 358.53037648 -1511.03039675 358.5125451 C-1519.28657232 358.50297827 -1527.54257182 358.50442475 -1535.79873565 358.52177979 C-1541.96381044 358.53349836 -1548.12868772 358.52429994 -1554.29374553 358.50695742 C-1556.78756851 358.50318184 -1559.28141274 358.50616395 -1561.77521687 358.51656907 C-1565.16539651 358.52970891 -1568.55464552 358.5181811 -1571.94478512 358.50057125 C-1572.9125367 358.51022176 -1573.88028829 358.51987227 -1574.87736568 358.52981523 C-1592.23995488 358.34469089 -1602.13335953 348.14694246 -1613.51269531 336.52416992 C-1614.89529462 335.10730067 -1616.27398175 333.68661675 -1617.65234375 332.265625 C-1619.66417792 330.32408787 -1621.51449802 328.78658941 -1623.875 327.3125 C-1624.49117187 326.91675781 -1625.10734375 326.52101563 -1625.7421875 326.11328125 C-1631.72243776 323.16454193 -1637.44006442 322.67790474 -1643.99243164 322.56103516 C-1644.88115778 322.53782542 -1645.76988392 322.51461569 -1646.68554115 322.49070263 C-1649.67693588 322.41480974 -1652.66846325 322.35201565 -1655.66015625 322.2890625 C-1657.84269613 322.23636486 -1660.02521634 322.18284763 -1662.2077179 322.12858582 C-1668.2251167 321.98126493 -1674.24272689 321.84525933 -1680.26042938 321.71100235 C-1686.66222291 321.5661946 -1693.06376161 321.41089663 -1699.46533203 321.2565918 C-1710.10223141 321.00112921 -1720.73925073 320.75123895 -1731.3763628 320.50480211 C-1752.54732396 320.01416475 -1773.71775487 319.50224886 -1794.88815284 318.98795509 C-1803.47678071 318.77934429 -1812.06541707 318.57108277 -1820.65405273 318.36279297 C-1821.5943603 318.33998402 -1822.53466786 318.31717507 -1823.50346959 318.29367495 C-1844.61419711 317.78165799 -1865.72505051 317.27492553 -1886.8359375 316.76953125 C-1887.66748423 316.74962183 -1888.49903096 316.72971241 -1889.35577607 316.70919967 C-1899.23717967 316.47261679 -1909.11858714 316.23619585 -1919 316 C-1919 314.02 -1919 312.04 -1919 310 C-1886.32004882 310.74499647 -1853.64014629 311.49208443 -1820.96030829 312.24202829 C-1817.08828531 312.33088248 -1813.21626192 312.41971913 -1809.34423828 312.50854492 C-1808.57349851 312.5262263 -1807.80275874 312.54390768 -1807.00866322 312.56212486 C-1794.58465654 312.84709967 -1782.16061794 313.13065862 -1769.73656662 313.41367965 C-1756.95596618 313.70485499 -1744.17540204 313.99758589 -1731.39486921 314.29171377 C-1723.53027968 314.47265977 -1715.66566541 314.65244122 -1707.80101351 314.83065618 C-1701.7356943 314.96822899 -1695.67042718 315.10798252 -1689.60517502 315.24848366 C-1687.14244928 315.30520711 -1684.67970804 315.36126264 -1682.21694946 315.41654205 C-1675.57406739 315.56586004 -1668.93200454 315.73235125 -1662.29001284 315.91703486 C-1658.84152651 316.00399627 -1655.39310235 316.06369679 -1651.94404221 316.12323189 C-1649.63311553 316.17849979 -1647.32220786 316.23456939 -1645.01132202 316.29151917 C-1643.44423003 316.30890448 -1643.44423003 316.30890448 -1641.84547961 316.32664102 C-1629.52829196 316.68207646 -1619.69094362 320.83033508 -1611.171875 329.80859375 C-1610.28886719 330.72060547 -1609.40585938 331.63261719 -1608.49609375 332.57226562 C-1606.67478717 334.47259048 -1604.85959899 336.37879948 -1603.05078125 338.29101562 C-1595.80167075 345.74528963 -1588.48347017 351.52151372 -1577.7560828 352.12656184 C-1576.98815563 352.12730082 -1576.22022846 352.1280398 -1575.42903078 352.12880117 C-1574.08762605 352.13370946 -1574.08762605 352.13370946 -1572.71912223 352.13871691 C-1571.74391614 352.13723328 -1570.76871005 352.13574966 -1569.76395226 352.13422108 C-1568.71806366 352.13657331 -1567.67217506 352.13892554 -1566.59459287 352.14134905 C-1563.06674421 352.14804107 -1559.53893236 352.14758076 -1556.01107788 352.14717102 C-1553.46547503 352.15046951 -1550.9198727 352.15419504 -1548.37427104 352.1583125 C-1542.0968981 352.16728929 -1535.81953619 352.17156039 -1529.54215771 352.17383147 C-1522.02433424 352.17679375 -1514.50652012 352.18549127 -1506.98870156 352.19424575 C-1488.81780418 352.21508949 -1470.64690518 352.2255596 -1452.47599864 352.23437535 C-1443.88060401 352.23858173 -1435.28521007 352.24380371 -1426.68981603 352.24905988 C-1397.2691104 352.26694949 -1367.84840457 352.28194594 -1338.42769432 352.28938007 C-1336.58068324 352.28985483 -1334.73367217 352.29033072 -1332.88666109 352.29080774 C-1331.97070776 352.29104411 -1331.05475444 352.29128049 -1330.11104495 352.29152403 C-1325.47035158 352.29272523 -1320.82965821 352.29394068 -1316.18896484 352.29516602 C-1314.80752484 352.29552624 -1314.80752484 352.29552624 -1313.39817696 352.29589374 C-1283.53434253 352.30378775 -1253.67054781 352.32722197 -1223.80673073 352.35972196 C-1192.23581507 352.39401704 -1160.66492265 352.41373088 -1129.09398806 352.41702431 C-1125.62847113 352.41744186 -1122.16295421 352.41792142 -1118.69743729 352.41844749 C-1117.84412444 352.41857069 -1116.9908116 352.41869388 -1116.1116408 352.4188208 C-1102.37764233 352.42115315 -1088.64368997 352.43681493 -1074.90970794 352.45728934 C-1061.10579693 352.47754159 -1047.30194131 352.48302747 -1033.49801819 352.47351871 C-1025.29740514 352.46830153 -1017.0969765 352.47419144 -1008.89638998 352.49605338 C-1002.77248124 352.51114523 -996.64875959 352.50532534 -990.52485187 352.49138286 C-988.04769908 352.48899652 -985.57052861 352.49338315 -983.09340291 352.50521151 C-979.72565107 352.52029713 -976.3588237 352.51067982 -972.99109459 352.49498463 C-971.54935595 352.51031794 -971.54935595 352.51031794 -970.07849127 352.52596101 C-955.26813371 352.37537372 -945.82884638 344.93613122 -935.625 335.125 C-914.19958536 314.87879504 -914.19958536 314.87879504 -900.54127932 314.87284148 C-899.4230331 314.86992944 -898.30478688 314.86701741 -897.15265441 314.86401713 C-895.92162057 314.86589734 -894.69058673 314.86777755 -893.42224884 314.86971474 C-891.45545154 314.86679959 -891.45545154 314.86679959 -889.44892097 314.86382556 C-885.79011584 314.85853573 -882.1313343 314.85948847 -878.47252683 314.86139868 C-874.49919335 314.86237008 -870.5258664 314.85754325 -866.55253553 314.85341966 C-859.58214178 314.84697593 -852.61175403 314.84420249 -845.64135742 314.84379387 C-835.27592204 314.84315 -824.91049588 314.8367633 -814.54506362 314.82904707 C-798.17774501 314.81695962 -781.81042683 314.80830372 -765.44310503 314.80200893 C-739.45858482 314.79198241 -713.47407777 314.77273226 -687.48956545 314.75046654 C-677.49580816 314.74193543 -667.50205064 314.73366938 -657.50829315 314.72536278 C-656.39790298 314.72443777 -655.28751281 314.72351276 -654.14347445 314.72255972 C-627.70046868 314.70056002 -601.25746145 314.68077357 -574.81445312 314.66210938 C-573.65715585 314.6612897 -572.49985857 314.66047002 -571.30749168 314.6596255 C-544.30997623 314.64054316 -517.31246085 314.62358147 -490.31494141 314.61126709 C-489.15409781 314.61073742 -487.99325422 314.61020775 -486.79723355 314.60966204 C-477.44052505 314.6054105 -468.08381652 314.60123415 -458.72710798 314.59707724 C-420.15652684 314.57988253 -381.58596366 314.55267466 -343.01539794 314.51391686 C-337.56893545 314.50845493 -332.12247284 314.50312196 -326.67601013 314.49787521 C-325.60408044 314.49684083 -324.53215074 314.49580645 -323.42773833 314.49474073 C-306.16890399 314.47840997 -288.91008221 314.47288666 -271.65124088 314.47157755 C-254.30621276 314.47007365 -236.9612188 314.45792544 -219.61620575 314.43482114 C-209.30960366 314.42143292 -199.00307613 314.41642732 -188.69646727 314.4233675 C-181.8111884 314.42718727 -174.9259756 314.42016371 -168.04071398 314.40435172 C-164.11803484 314.39565598 -160.19550855 314.39166336 -156.27282721 314.40092559 C-152.69940607 314.40927236 -149.12627939 314.40369034 -145.55288848 314.387318 C-143.67220311 314.38220599 -141.79149502 314.39167347 -139.91083026 314.40185404 C-119.4946998 314.25981728 -108.93952826 305.16254554 -94.89453125 291.68359375 C-91.614198 288.54761507 -88.23907275 285.5418484 -84.81030273 282.56958008 C-82.55666138 280.61561375 -80.33860408 278.62413724 -78.125 276.625 C-76.86042969 275.48417969 -76.86042969 275.48417969 -75.5703125 274.3203125 C-74.29800781 273.17175781 -74.29800781 273.17175781 -73 272 C-70.50312008 269.75203023 -68.00546849 267.50491993 -65.5078125 265.2578125 C-63.81407106 263.73291756 -62.12138831 262.20684598 -60.4296875 260.6796875 C-56.68435744 257.30087292 -52.93481793 253.93104035 -49.125 250.625 C-45.69667808 247.64083314 -42.34379199 244.57811516 -39 241.5 C-35.04676481 237.86086419 -31.06054491 234.26913892 -27 230.75 C-23.73492554 227.89305984 -20.52937763 224.97034356 -17.3203125 222.05078125 C-15.50738523 220.44844654 -13.68953174 218.99937823 -11.75 217.5625 C-4.35458219 210.67131522 -1.09480392 201.80645411 -0.73828697 191.8315649 C-0.72282122 190.38004537 -0.71771339 188.9283883 -0.7215271 187.47679138 C-0.7157347 186.6687253 -0.7099423 185.86065921 -0.70397437 185.02810627 C-0.68710421 182.34739054 -0.68410916 179.66684831 -0.68115234 176.98608398 C-0.67184519 175.05374231 -0.66167535 173.12140463 -0.65071106 171.18907166 C-0.62348582 165.96250702 -0.60828384 160.73596922 -0.59528303 155.50935245 C-0.57961973 150.04006302 -0.55283972 144.57082814 -0.5272522 139.10157776 C-0.48052101 128.75335241 -0.44374952 118.40511674 -0.41057932 108.05684 C-0.37231792 96.27205751 -0.32291828 84.48732988 -0.27259517 72.70259368 C-0.16935951 48.46843649 -0.08007193 24.23424402 0 0 Z " fill="#0B880B" transform="translate(2307,326)"/>
<path d="M0 0 C7.90143498 6.29275959 12.29905414 14.47919584 13.875 24.375 C14.9939301 34.72904329 12.18422265 44.12315566 5.875 52.375 C0.53473521 58.93082379 -6.68013128 63.84937591 -15.125 65.375 C-27.68171208 66.28577222 -38.13589595 64.78722619 -48.05078125 56.4921875 C-55.96034814 48.41876894 -59.07195903 40.07482687 -59.5 29.0625 C-59.29427237 17.95320795 -55.04401361 9.64304635 -47.53515625 1.69140625 C-34.16418319 -10.9245001 -14.47909734 -9.77269859 0 0 Z " fill="#317A1E" transform="translate(2327.125,255.625)"/>
<path d="M0 0 C9.82132473 6.39328818 16.49614631 14.02352077 19.23828125 25.45703125 C20.31854196 37.77954002 18.90519975 47.75738869 10.99609375 57.57421875 C3.61341877 65.48188395 -3.72985142 69.3896349 -14.5402832 69.85791016 C-25.10068944 70.04238214 -32.99601528 68.13860082 -41.13671875 61.20703125 C-48.57338 54.01825871 -52.93196049 46.53232679 -53.14282227 36.03710938 C-53.11000908 23.51034616 -51.01886749 15.95085925 -42.1328125 6.65625 C-31.30988012 -3.38215351 -13.59314718 -6.64397349 0 0 Z " fill="#7FC56A" transform="translate(2174.76171875,161.54296875)"/>
<path d="M0 0 C3.73569001 3.69418234 6.73195864 7.50060133 7.30078125 12.8046875 C7.34572491 24.57992565 7.34572491 24.57992565 2.41796875 29.6171875 C-2.90937254 34.46866606 -7.40644046 36.50561057 -14.66015625 36.3125 C-20.07532613 35.58927197 -24.31552298 33.10068405 -27.875 29 C-32.16378637 22.94524277 -32.81814735 18.38377984 -32 11 C-30.24892093 5.09010813 -27.06862514 1.37908343 -22 -2 C-14.54027754 -5.09648857 -6.77184231 -4.4632597 0 0 Z " fill="#4A9933" transform="translate(370,624)"/>
<path d="M0 0 C4.98432226 2.8697613 7.7981998 6.27301771 10.0625 11.625 C11.08850384 17.78102304 10.85745395 23.07842372 8 28.6875 C3.94937804 33.39497958 0.23388231 37.08617581 -6.23828125 37.61328125 C-17.58930532 37.86203495 -17.58930532 37.86203495 -22.3125 33.375 C-26.96213713 28.51401572 -29.01711933 24.62418732 -29.625 17.9375 C-29.02680159 11.11803812 -26.10843268 6.17093268 -21.3125 1.375 C-14.6231048 -2.55993835 -7.12076615 -3.21106247 0 0 Z " fill="#499833" transform="translate(509.3125,266.625)"/>
<path d="M0 0 C5.11879462 2.69410243 8.40210209 6.66233463 11.21875 11.625 C12.86187496 18.04812484 12.51196361 23.62818998 9.25 29.453125 C6.27976681 33.56309883 2.72443157 36.70643948 -2.09375 38.3125 C-9.0892842 39.03796281 -14.69718192 39.01104732 -20.4765625 34.73046875 C-24.98272092 30.7794168 -27.00768706 27.23647965 -28.09375 21.3125 C-28.19509631 14.96146443 -26.74220126 10.48113928 -23.09375 5.3125 C-16.7558196 -0.70040833 -8.43836527 -2.77080651 0 0 Z " fill="#4A9933" transform="translate(621.09375,112.6875)"/>
</svg>
